<?xml version="1.0" encoding="UTF-8" standalone="no"?><svg xmlns="http://www.w3.org/2000/svg" xmlns:xlink="http://www.w3.org/1999/xlink" contentScriptType="application/ecmascript" contentStyleType="text/css" height="626px" preserveAspectRatio="none" style="width:981px;height:626px;" version="1.1" viewBox="0 0 981 626" width="981px" zoomAndPan="magnify"><defs><filter height="300%" id="f2ncjkw14phmb" width="300%" x="-1" y="-1"><feGaussianBlur result="blurOut" stdDeviation="2.0"/><feColorMatrix in="blurOut" result="blurOut2" type="matrix" values="0 0 0 0 0 0 0 0 0 0 0 0 0 0 0 0 0 0 .4 0"/><feOffset dx="4.0" dy="4.0" in="blurOut2" result="blurOut3"/><feBlend in="SourceGraphic" in2="blurOut3" mode="normal"/></filter></defs><g><line style="stroke: #A80036; stroke-width: 1.0; stroke-dasharray: 5.0,5.0;" x1="41" x2="41" y1="86.4883" y2="539.2148"/><line style="stroke: #A80036; stroke-width: 1.0; stroke-dasharray: 5.0,5.0;" x1="202.5" x2="202.5" y1="86.4883" y2="539.2148"/><line style="stroke: #A80036; stroke-width: 1.0; stroke-dasharray: 5.0,5.0;" x1="390.5" x2="390.5" y1="86.4883" y2="539.2148"/><line style="stroke: #A80036; stroke-width: 1.0; stroke-dasharray: 5.0,5.0;" x1="569.5" x2="569.5" y1="86.4883" y2="539.2148"/><line style="stroke: #A80036; stroke-width: 1.0; stroke-dasharray: 5.0,5.0;" x1="720" x2="720" y1="86.4883" y2="539.2148"/><line style="stroke: #A80036; stroke-width: 1.0; stroke-dasharray: 5.0,5.0;" x1="883" x2="883" y1="86.4883" y2="539.2148"/><text fill="#000000" font-family="sans-serif" font-size="14" lengthAdjust="spacingAndGlyphs" textLength="61" x="8" y="83.5352">Engineer</text><ellipse cx="41.5" cy="13" fill="#FEFECE" filter="url(#f2ncjkw14phmb)" rx="8" ry="8" style="stroke: #A80036; stroke-width: 2.0;"/><path d="M41.5,21 L41.5,48 M28.5,29 L54.5,29 M41.5,48 L28.5,63 M41.5,48 L54.5,63 " fill="none" filter="url(#f2ncjkw14phmb)" style="stroke: #A80036; stroke-width: 2.0;"/><text fill="#000000" font-family="sans-serif" font-size="14" lengthAdjust="spacingAndGlyphs" textLength="61" x="8" y="551.75">Engineer</text><ellipse cx="41.5" cy="564.7031" fill="#FEFECE" filter="url(#f2ncjkw14phmb)" rx="8" ry="8" style="stroke: #A80036; stroke-width: 2.0;"/><path d="M41.5,572.7031 L41.5,599.7031 M28.5,580.7031 L54.5,580.7031 M41.5,599.7031 L28.5,614.7031 M41.5,599.7031 L54.5,614.7031 " fill="none" filter="url(#f2ncjkw14phmb)" style="stroke: #A80036; stroke-width: 2.0;"/><rect fill="#FEFECE" filter="url(#f2ncjkw14phmb)" height="30.4883" style="stroke: #A80036; stroke-width: 1.5;" width="140" x="130.5" y="51"/><text fill="#000000" font-family="sans-serif" font-size="14" lengthAdjust="spacingAndGlyphs" textLength="126" x="137.5" y="71.5352">Source Code Repo</text><rect fill="#FEFECE" filter="url(#f2ncjkw14phmb)" height="30.4883" style="stroke: #A80036; stroke-width: 1.5;" width="140" x="130.5" y="538.2148"/><text fill="#000000" font-family="sans-serif" font-size="14" lengthAdjust="spacingAndGlyphs" textLength="126" x="137.5" y="558.75">Source Code Repo</text><rect fill="#FEFECE" filter="url(#f2ncjkw14phmb)" height="30.4883" style="stroke: #A80036; stroke-width: 1.5;" width="209" x="284.5" y="51"/><text fill="#000000" font-family="sans-serif" font-size="14" lengthAdjust="spacingAndGlyphs" textLength="195" x="291.5" y="71.5352">Continuous Integration Tool</text><rect fill="#FEFECE" filter="url(#f2ncjkw14phmb)" height="30.4883" style="stroke: #A80036; stroke-width: 1.5;" width="209" x="284.5" y="538.2148"/><text fill="#000000" font-family="sans-serif" font-size="14" lengthAdjust="spacingAndGlyphs" textLength="195" x="291.5" y="558.75">Continuous Integration Tool</text><rect fill="#FEFECE" filter="url(#f2ncjkw14phmb)" height="30.4883" style="stroke: #A80036; stroke-width: 1.5;" width="121" x="507.5" y="51"/><text fill="#000000" font-family="sans-serif" font-size="14" lengthAdjust="spacingAndGlyphs" textLength="107" x="514.5" y="71.5352">Container Repo</text><rect fill="#FEFECE" filter="url(#f2ncjkw14phmb)" height="30.4883" style="stroke: #A80036; stroke-width: 1.5;" width="121" x="507.5" y="538.2148"/><text fill="#000000" font-family="sans-serif" font-size="14" lengthAdjust="spacingAndGlyphs" textLength="107" x="514.5" y="558.75">Container Repo</text><rect fill="#FEFECE" filter="url(#f2ncjkw14phmb)" height="30.4883" style="stroke: #A80036; stroke-width: 1.5;" width="140" x="648" y="51"/><text fill="#000000" font-family="sans-serif" font-size="14" lengthAdjust="spacingAndGlyphs" textLength="126" x="655" y="71.5352">Bootstrap Console</text><rect fill="#FEFECE" filter="url(#f2ncjkw14phmb)" height="30.4883" style="stroke: #A80036; stroke-width: 1.5;" width="140" x="648" y="538.2148"/><text fill="#000000" font-family="sans-serif" font-size="14" lengthAdjust="spacingAndGlyphs" textLength="126" x="655" y="558.75">Bootstrap Console</text><rect fill="#FEFECE" filter="url(#f2ncjkw14phmb)" height="30.4883" style="stroke: #A80036; stroke-width: 1.5;" width="158" x="802" y="51"/><text fill="#000000" font-family="sans-serif" font-size="14" lengthAdjust="spacingAndGlyphs" textLength="144" x="809" y="71.5352">Hosting Environment</text><rect fill="#FEFECE" filter="url(#f2ncjkw14phmb)" height="30.4883" style="stroke: #A80036; stroke-width: 1.5;" width="158" x="802" y="538.2148"/><text fill="#000000" font-family="sans-serif" font-size="14" lengthAdjust="spacingAndGlyphs" textLength="144" x="809" y="558.75">Hosting Environment</text><polygon fill="#A80036" points="190.5,113.7988,200.5,117.7988,190.5,121.7988,194.5,117.7988" style="stroke: #A80036; stroke-width: 1.0;"/><line style="stroke: #A80036; stroke-width: 1.0;" x1="41.5" x2="196.5" y1="117.7988" y2="117.7988"/><text fill="#000000" font-family="sans-serif" font-size="13" lengthAdjust="spacingAndGlyphs" textLength="137" x="48.5" y="113.0566">Commits source code</text><polygon fill="#A80036" points="213.5,143.1094,203.5,147.1094,213.5,151.1094,209.5,147.1094" style="stroke: #A80036; stroke-width: 1.0;"/><line style="stroke: #A80036; stroke-width: 1.0;" x1="207.5" x2="390" y1="147.1094" y2="147.1094"/><text fill="#000000" font-family="sans-serif" font-size="13" lengthAdjust="spacingAndGlyphs" textLength="126" x="219.5" y="142.3672">Listens for commits</text><rect fill="#EEEEEE" filter="url(#f2ncjkw14phmb)" height="3" style="stroke: #EEEEEE; stroke-width: 1.0;" width="966" x="3" y="175.7646"/><line style="stroke: #000000; stroke-width: 1.0;" x1="3" x2="969" y1="175.7646" y2="175.7646"/><line style="stroke: #000000; stroke-width: 1.0;" x1="3" x2="969" y1="178.7646" y2="178.7646"/><rect fill="#EEEEEE" filter="url(#f2ncjkw14phmb)" height="23.3105" style="stroke: #000000; stroke-width: 2.0;" width="152" x="410" y="165.1094"/><text fill="#000000" font-family="sans-serif" font-size="13" font-weight="bold" lengthAdjust="spacingAndGlyphs" textLength="134" x="416" y="181.6777">Software Build-time</text><line style="stroke: #A80036; stroke-width: 1.0;" x1="391" x2="433" y1="219.7305" y2="219.7305"/><line style="stroke: #A80036; stroke-width: 1.0;" x1="433" x2="433" y1="219.7305" y2="232.7305"/><line style="stroke: #A80036; stroke-width: 1.0;" x1="392" x2="433" y1="232.7305" y2="232.7305"/><polygon fill="#A80036" points="402,228.7305,392,232.7305,402,236.7305,398,232.7305" style="stroke: #A80036; stroke-width: 1.0;"/><text fill="#000000" font-family="sans-serif" font-size="13" lengthAdjust="spacingAndGlyphs" textLength="111" x="398" y="214.9883">Build source code</text><line style="stroke: #A80036; stroke-width: 1.0;" x1="391" x2="433" y1="262.041" y2="262.041"/><line style="stroke: #A80036; stroke-width: 1.0;" x1="433" x2="433" y1="262.041" y2="275.041"/><line style="stroke: #A80036; stroke-width: 1.0;" x1="392" x2="433" y1="275.041" y2="275.041"/><polygon fill="#A80036" points="402,271.041,392,275.041,402,279.041,398,275.041" style="stroke: #A80036; stroke-width: 1.0;"/><text fill="#000000" font-family="sans-serif" font-size="13" lengthAdjust="spacingAndGlyphs" textLength="59" x="398" y="257.2988">Run tests</text><line style="stroke: #A80036; stroke-width: 1.0;" x1="391" x2="433" y1="304.3516" y2="304.3516"/><line style="stroke: #A80036; stroke-width: 1.0;" x1="433" x2="433" y1="304.3516" y2="317.3516"/><line style="stroke: #A80036; stroke-width: 1.0;" x1="392" x2="433" y1="317.3516" y2="317.3516"/><polygon fill="#A80036" points="402,313.3516,392,317.3516,402,321.3516,398,317.3516" style="stroke: #A80036; stroke-width: 1.0;"/><text fill="#000000" font-family="sans-serif" font-size="13" lengthAdjust="spacingAndGlyphs" textLength="94" x="398" y="299.6094">Build container</text><polygon fill="#A80036" points="558,342.6621,568,346.6621,558,350.6621,562,346.6621" style="stroke: #A80036; stroke-width: 1.0;"/><line style="stroke: #A80036; stroke-width: 1.0;" x1="391" x2="564" y1="346.6621" y2="346.6621"/><text fill="#000000" font-family="sans-serif" font-size="13" lengthAdjust="spacingAndGlyphs" textLength="105" x="398" y="341.9199">Persist container</text><rect fill="#EEEEEE" filter="url(#f2ncjkw14phmb)" height="3" style="stroke: #EEEEEE; stroke-width: 1.0;" width="966" x="3" y="375.3174"/><line style="stroke: #000000; stroke-width: 1.0;" x1="3" x2="969" y1="375.3174" y2="375.3174"/><line style="stroke: #000000; stroke-width: 1.0;" x1="3" x2="969" y1="378.3174" y2="378.3174"/><rect fill="#EEEEEE" filter="url(#f2ncjkw14phmb)" height="23.3105" style="stroke: #000000; stroke-width: 2.0;" width="165" x="403.5" y="364.6621"/><text fill="#000000" font-family="sans-serif" font-size="13" font-weight="bold" lengthAdjust="spacingAndGlyphs" textLength="147" x="409.5" y="381.2305">Software Deploy-time</text><polygon fill="#A80036" points="708,415.2832,718,419.2832,708,423.2832,712,419.2832" style="stroke: #A80036; stroke-width: 1.0;"/><line style="stroke: #A80036; stroke-width: 1.0;" x1="41.5" x2="714" y1="419.2832" y2="419.2832"/><text fill="#000000" font-family="sans-serif" font-size="13" lengthAdjust="spacingAndGlyphs" textLength="176" x="48.5" y="414.541">CMD | $ deploy-container...</text><polygon fill="#A80036" points="581,444.5938,571,448.5938,581,452.5938,577,448.5938" style="stroke: #A80036; stroke-width: 1.0;"/><line style="stroke: #A80036; stroke-width: 1.0;" x1="575" x2="719" y1="448.5938" y2="448.5938"/><text fill="#000000" font-family="sans-serif" font-size="13" lengthAdjust="spacingAndGlyphs" textLength="126" x="587" y="443.8516">Download conatiner</text><polygon fill="#A80036" points="871,473.9043,881,477.9043,871,481.9043,875,477.9043" style="stroke: #A80036; stroke-width: 1.0;"/><line style="stroke: #A80036; stroke-width: 1.0;" x1="720" x2="877" y1="477.9043" y2="477.9043"/><text fill="#000000" font-family="sans-serif" font-size="13" lengthAdjust="spacingAndGlyphs" textLength="107" x="727" y="473.1621">Deploy container</text><rect fill="#EEEEEE" filter="url(#f2ncjkw14phmb)" height="3" style="stroke: #EEEEEE; stroke-width: 1.0;" width="966" x="3" y="506.5596"/><line style="stroke: #000000; stroke-width: 1.0;" x1="3" x2="969" y1="506.5596" y2="506.5596"/><line style="stroke: #000000; stroke-width: 1.0;" x1="3" x2="969" y1="509.5596" y2="509.5596"/><rect fill="#EEEEEE" filter="url(#f2ncjkw14phmb)" height="23.3105" style="stroke: #000000; stroke-width: 2.0;" width="137" x="417.5" y="495.9043"/><text fill="#000000" font-family="sans-serif" font-size="13" font-weight="bold" lengthAdjust="spacingAndGlyphs" textLength="119" x="423.5" y="512.4727">Software Runtime</text><!--
@startuml

actor Engineer as user
participant "Source Code Repo" as git
participant "Continuous Integration Tool" as cicd
participant "Container Repo" as dckr
participant "Bootstrap Console" as cnsl
participant "Hosting Environment" as clstr

user -> git : Commits source code
git <- cicd : Listens for commits

== Software Build-time ==

cicd <- cicd : Build source code
cicd <- cicd : Run tests
cicd <- cicd : Build container
cicd -> dckr : Persist container

== Software Deploy-time ==

user -> cnsl : CMD | $ deploy-container...
cnsl -> dckr : Download conatiner
cnsl -> clstr : Deploy container

== Software Runtime == 

@enduml

PlantUML version 1.2018.03(Thu Apr 05 12:59:15 EDT 2018)
(GPL source distribution)
Java Runtime: Java(TM) SE Runtime Environment
JVM: Java HotSpot(TM) 64-Bit Server VM
Java Version: 1.8.0_131-b11
Operating System: Mac OS X
OS Version: 10.13.4
Default Encoding: UTF-8
Language: en
Country: US
--></g></svg>