<?xml version="1.0" encoding="UTF-8" standalone="no"?><svg xmlns="http://www.w3.org/2000/svg" xmlns:xlink="http://www.w3.org/1999/xlink" contentScriptType="application/ecmascript" contentStyleType="text/css" height="578px" preserveAspectRatio="none" style="width:731px;height:578px;" version="1.1" viewBox="0 0 731 578" width="731px" zoomAndPan="magnify"><defs><filter height="300%" id="f9315d9io75dl" width="300%" x="-1" y="-1"><feGaussianBlur result="blurOut" stdDeviation="2.0"/><feColorMatrix in="blurOut" result="blurOut2" type="matrix" values="0 0 0 0 0 0 0 0 0 0 0 0 0 0 0 0 0 0 .4 0"/><feOffset dx="4.0" dy="4.0" in="blurOut2" result="blurOut3"/><feBlend in="SourceGraphic" in2="blurOut3" mode="normal"/></filter></defs><g><rect fill="#90EE90" height="563.082" style="stroke: #A80036; stroke-width: 1.0;" width="420.5" x="139" y="4"/><text fill="#000000" font-family="sans-serif" font-size="13" font-weight="bold" lengthAdjust="spacingAndGlyphs" textLength="44" x="327.25" y="16.5684">GitLab</text><rect fill="#ADD8E6" height="563.082" style="stroke: #A80036; stroke-width: 1.0;" width="157" x="561.5" y="4"/><text fill="#000000" font-family="sans-serif" font-size="13" font-weight="bold" lengthAdjust="spacingAndGlyphs" textLength="151" x="564.5" y="16.5684">Google Cloud Platform</text><line style="stroke: #A80036; stroke-width: 1.0; stroke-dasharray: 5.0,5.0;" x1="41" x2="41" y1="86.4883" y2="480.5938"/><line style="stroke: #A80036; stroke-width: 1.0; stroke-dasharray: 5.0,5.0;" x1="202" x2="202" y1="86.4883" y2="480.5938"/><line style="stroke: #A80036; stroke-width: 1.0; stroke-dasharray: 5.0,5.0;" x1="352" x2="352" y1="86.4883" y2="480.5938"/><line style="stroke: #A80036; stroke-width: 1.0; stroke-dasharray: 5.0,5.0;" x1="481.5" x2="481.5" y1="86.4883" y2="480.5938"/><line style="stroke: #A80036; stroke-width: 1.0; stroke-dasharray: 5.0,5.0;" x1="639.5" x2="639.5" y1="86.4883" y2="480.5938"/><text fill="#000000" font-family="sans-serif" font-size="14" lengthAdjust="spacingAndGlyphs" textLength="61" x="8" y="83.5352">Engineer</text><ellipse cx="41.5" cy="13" fill="#FEFECE" filter="url(#f9315d9io75dl)" rx="8" ry="8" style="stroke: #A80036; stroke-width: 2.0;"/><path d="M41.5,21 L41.5,48 M28.5,29 L54.5,29 M41.5,48 L28.5,63 M41.5,48 L54.5,63 " fill="none" filter="url(#f9315d9io75dl)" style="stroke: #A80036; stroke-width: 2.0;"/><text fill="#000000" font-family="sans-serif" font-size="14" lengthAdjust="spacingAndGlyphs" textLength="61" x="8" y="493.1289">Engineer</text><ellipse cx="41.5" cy="506.082" fill="#FEFECE" filter="url(#f9315d9io75dl)" rx="8" ry="8" style="stroke: #A80036; stroke-width: 2.0;"/><path d="M41.5,514.082 L41.5,541.082 M28.5,522.082 L54.5,522.082 M41.5,541.082 L28.5,556.082 M41.5,541.082 L54.5,556.082 " fill="none" filter="url(#f9315d9io75dl)" style="stroke: #A80036; stroke-width: 2.0;"/><rect fill="#FEFECE" filter="url(#f9315d9io75dl)" height="30.4883" style="stroke: #A80036; stroke-width: 1.5;" width="115" x="143" y="51"/><text fill="#000000" font-family="sans-serif" font-size="14" lengthAdjust="spacingAndGlyphs" textLength="101" x="150" y="71.5352">GitLab git repo</text><rect fill="#FEFECE" filter="url(#f9315d9io75dl)" height="30.4883" style="stroke: #A80036; stroke-width: 1.5;" width="115" x="143" y="479.5938"/><text fill="#000000" font-family="sans-serif" font-size="14" lengthAdjust="spacingAndGlyphs" textLength="101" x="150" y="500.1289">GitLab git repo</text><rect fill="#FEFECE" filter="url(#f9315d9io75dl)" height="30.4883" style="stroke: #A80036; stroke-width: 1.5;" width="75" x="313" y="51"/><text fill="#000000" font-family="sans-serif" font-size="14" lengthAdjust="spacingAndGlyphs" textLength="61" x="320" y="71.5352">GitLab CI</text><rect fill="#FEFECE" filter="url(#f9315d9io75dl)" height="30.4883" style="stroke: #A80036; stroke-width: 1.5;" width="75" x="313" y="479.5938"/><text fill="#000000" font-family="sans-serif" font-size="14" lengthAdjust="spacingAndGlyphs" textLength="61" x="320" y="500.1289">GitLab CI</text><rect fill="#FEFECE" filter="url(#f9315d9io75dl)" height="30.4883" style="stroke: #A80036; stroke-width: 1.5;" width="144" x="407.5" y="51"/><text fill="#000000" font-family="sans-serif" font-size="14" lengthAdjust="spacingAndGlyphs" textLength="130" x="414.5" y="71.5352">GitLab docker repo</text><rect fill="#FEFECE" filter="url(#f9315d9io75dl)" height="30.4883" style="stroke: #A80036; stroke-width: 1.5;" width="144" x="407.5" y="479.5938"/><text fill="#000000" font-family="sans-serif" font-size="14" lengthAdjust="spacingAndGlyphs" textLength="130" x="414.5" y="500.1289">GitLab docker repo</text><rect fill="#FEFECE" filter="url(#f9315d9io75dl)" height="30.4883" style="stroke: #A80036; stroke-width: 1.5;" width="41" x="617.5" y="51"/><text fill="#000000" font-family="sans-serif" font-size="14" lengthAdjust="spacingAndGlyphs" textLength="27" x="624.5" y="71.5352">GKE</text><rect fill="#FEFECE" filter="url(#f9315d9io75dl)" height="30.4883" style="stroke: #A80036; stroke-width: 1.5;" width="41" x="617.5" y="479.5938"/><text fill="#000000" font-family="sans-serif" font-size="14" lengthAdjust="spacingAndGlyphs" textLength="27" x="624.5" y="500.1289">GKE</text><polygon fill="#A80036" points="190.5,113.7988,200.5,117.7988,190.5,121.7988,194.5,117.7988" style="stroke: #A80036; stroke-width: 1.0;"/><line style="stroke: #A80036; stroke-width: 1.0;" x1="41.5" x2="196.5" y1="117.7988" y2="117.7988"/><text fill="#000000" font-family="sans-serif" font-size="13" lengthAdjust="spacingAndGlyphs" textLength="137" x="48.5" y="113.0566">Commits source code</text><polygon fill="#A80036" points="213.5,143.1094,203.5,147.1094,213.5,151.1094,209.5,147.1094" style="stroke: #A80036; stroke-width: 1.0;"/><line style="stroke: #A80036; stroke-width: 1.0;" x1="207.5" x2="351.5" y1="147.1094" y2="147.1094"/><text fill="#000000" font-family="sans-serif" font-size="13" lengthAdjust="spacingAndGlyphs" textLength="126" x="219.5" y="142.3672">Listens for commits</text><rect fill="#EEEEEE" filter="url(#f9315d9io75dl)" height="3" style="stroke: #EEEEEE; stroke-width: 1.0;" width="716.5" x="3" y="175.7646"/><line style="stroke: #000000; stroke-width: 1.0;" x1="3" x2="719.5" y1="175.7646" y2="175.7646"/><line style="stroke: #000000; stroke-width: 1.0;" x1="3" x2="719.5" y1="178.7646" y2="178.7646"/><rect fill="#EEEEEE" filter="url(#f9315d9io75dl)" height="23.3105" style="stroke: #000000; stroke-width: 2.0;" width="152" x="285.25" y="165.1094"/><text fill="#000000" font-family="sans-serif" font-size="13" font-weight="bold" lengthAdjust="spacingAndGlyphs" textLength="134" x="291.25" y="181.6777">Software Build-time</text><line style="stroke: #A80036; stroke-width: 1.0;" x1="352.5" x2="394.5" y1="219.7305" y2="219.7305"/><line style="stroke: #A80036; stroke-width: 1.0;" x1="394.5" x2="394.5" y1="219.7305" y2="232.7305"/><line style="stroke: #A80036; stroke-width: 1.0;" x1="353.5" x2="394.5" y1="232.7305" y2="232.7305"/><polygon fill="#A80036" points="363.5,228.7305,353.5,232.7305,363.5,236.7305,359.5,232.7305" style="stroke: #A80036; stroke-width: 1.0;"/><text fill="#000000" font-family="sans-serif" font-size="13" lengthAdjust="spacingAndGlyphs" textLength="111" x="359.5" y="214.9883">Build source code</text><line style="stroke: #A80036; stroke-width: 1.0;" x1="352.5" x2="394.5" y1="262.041" y2="262.041"/><line style="stroke: #A80036; stroke-width: 1.0;" x1="394.5" x2="394.5" y1="262.041" y2="275.041"/><line style="stroke: #A80036; stroke-width: 1.0;" x1="353.5" x2="394.5" y1="275.041" y2="275.041"/><polygon fill="#A80036" points="363.5,271.041,353.5,275.041,363.5,279.041,359.5,275.041" style="stroke: #A80036; stroke-width: 1.0;"/><text fill="#000000" font-family="sans-serif" font-size="13" lengthAdjust="spacingAndGlyphs" textLength="59" x="359.5" y="257.2988">Run tests</text><line style="stroke: #A80036; stroke-width: 1.0;" x1="352.5" x2="394.5" y1="304.3516" y2="304.3516"/><line style="stroke: #A80036; stroke-width: 1.0;" x1="394.5" x2="394.5" y1="304.3516" y2="317.3516"/><line style="stroke: #A80036; stroke-width: 1.0;" x1="353.5" x2="394.5" y1="317.3516" y2="317.3516"/><polygon fill="#A80036" points="363.5,313.3516,353.5,317.3516,363.5,321.3516,359.5,317.3516" style="stroke: #A80036; stroke-width: 1.0;"/><text fill="#000000" font-family="sans-serif" font-size="13" lengthAdjust="spacingAndGlyphs" textLength="98" x="359.5" y="299.6094">Build  container</text><polygon fill="#A80036" points="469.5,342.6621,479.5,346.6621,469.5,350.6621,473.5,346.6621" style="stroke: #A80036; stroke-width: 1.0;"/><line style="stroke: #A80036; stroke-width: 1.0;" x1="352.5" x2="475.5" y1="346.6621" y2="346.6621"/><text fill="#000000" font-family="sans-serif" font-size="13" lengthAdjust="spacingAndGlyphs" textLength="105" x="359.5" y="341.9199">Persist container</text><rect fill="#EEEEEE" filter="url(#f9315d9io75dl)" height="3" style="stroke: #EEEEEE; stroke-width: 1.0;" width="716.5" x="3" y="375.3174"/><line style="stroke: #000000; stroke-width: 1.0;" x1="3" x2="719.5" y1="375.3174" y2="375.3174"/><line style="stroke: #000000; stroke-width: 1.0;" x1="3" x2="719.5" y1="378.3174" y2="378.3174"/><rect fill="#EEEEEE" filter="url(#f9315d9io75dl)" height="23.3105" style="stroke: #000000; stroke-width: 2.0;" width="165" x="278.75" y="364.6621"/><text fill="#000000" font-family="sans-serif" font-size="13" font-weight="bold" lengthAdjust="spacingAndGlyphs" textLength="147" x="284.75" y="381.2305">Software Deploy-time</text><polygon fill="#A80036" points="628,415.2832,638,419.2832,628,423.2832,632,419.2832" style="stroke: #A80036; stroke-width: 1.0;"/><line style="stroke: #A80036; stroke-width: 1.0;" x1="352.5" x2="634" y1="419.2832" y2="419.2832"/><text fill="#000000" font-family="sans-serif" font-size="13" lengthAdjust="spacingAndGlyphs" textLength="107" x="359.5" y="414.541">Deploy container</text><rect fill="#EEEEEE" filter="url(#f9315d9io75dl)" height="3" style="stroke: #EEEEEE; stroke-width: 1.0;" width="716.5" x="3" y="447.9385"/><line style="stroke: #000000; stroke-width: 1.0;" x1="3" x2="719.5" y1="447.9385" y2="447.9385"/><line style="stroke: #000000; stroke-width: 1.0;" x1="3" x2="719.5" y1="450.9385" y2="450.9385"/><rect fill="#EEEEEE" filter="url(#f9315d9io75dl)" height="23.3105" style="stroke: #000000; stroke-width: 2.0;" width="137" x="292.75" y="437.2832"/><text fill="#000000" font-family="sans-serif" font-size="13" font-weight="bold" lengthAdjust="spacingAndGlyphs" textLength="119" x="298.75" y="453.8516">Software Runtime</text><!--
@startuml

actor Engineer as user

box "GitLab" #LightGreen
    participant "GitLab git repo" as git
    participant "GitLab CI" as cicd
    participant "GitLab docker repo" as dckr
end box

box "Google Cloud Platform" #LightBlue
    participant "GKE" as clstr
end box


user -> git : Commits source code
git <- cicd : Listens for commits

== Software Build-time ==

cicd <- cicd : Build source code
cicd <- cicd : Run tests
cicd <- cicd : Build  container
cicd -> dckr : Persist container

== Software Deploy-time ==

cicd -> clstr : Deploy container

== Software Runtime == 

@enduml

PlantUML version 1.2018.03(Thu Apr 05 12:59:15 EDT 2018)
(GPL source distribution)
Java Runtime: Java(TM) SE Runtime Environment
JVM: Java HotSpot(TM) 64-Bit Server VM
Java Version: 1.8.0_131-b11
Operating System: Mac OS X
OS Version: 10.13.4
Default Encoding: UTF-8
Language: en
Country: US
--></g></svg>